<svg width="288" height="112" viewBox="0 0 288 112" fill="none" xmlns="http://www.w3.org/2000/svg">
<mask id="mask0_1230:999" style="mask-type:alpha" maskUnits="userSpaceOnUse" x="0" y="0" width="288" height="112">
<rect width="288" height="112" fill="#EFEFEF"/>
</mask>
<g mask="url(#mask0_1230:999)">
<path d="M37.9685 60.6957L43.7473 44.1728C44.4322 42.2608 44.7746 40.8339 44.7746 39.8922C44.7746 39.0076 44.4607 38.4368 43.8329 38.18C43.2336 37.8946 42.2919 37.7519 41.0077 37.7519V36.0397H53.1645V37.7519C52.0801 37.7519 51.0956 38.023 50.2109 38.5653C49.3548 39.0789 48.6985 39.9636 48.2419 41.2192L37.9257 69.4281H34.116L26.6679 46.8267L18.1924 69.4281H14.6395L5.56472 44.4296C5.02252 42.9742 4.52312 41.8042 4.06653 40.9196C3.60994 40.0349 3.12481 39.3643 2.61114 38.9077C2.09747 38.4511 1.541 38.1515 0.941722 38.0088C0.342444 37.8661 -0.370981 37.7948 -1.19856 37.7948V36.0397H14.9819V37.7948C13.5266 37.7948 12.5278 37.9374 11.9856 38.2228C11.4434 38.4796 11.1722 38.922 11.1722 39.5498C11.1722 39.7781 11.1865 40.0064 11.2151 40.2347C11.2436 40.4344 11.3007 40.677 11.3863 40.9624C11.4719 41.2192 11.5718 41.5474 11.6859 41.9469C11.8286 42.3464 12.0141 42.8458 12.2424 43.4451L18.2352 60.6957L25.1697 41.7757C24.8843 41.0052 24.5989 40.3774 24.3136 39.8922C24.0282 39.4071 23.6857 39.0218 23.2862 38.7365C22.9152 38.4511 22.4872 38.2513 22.0021 38.1372C21.5169 37.9945 20.9319 37.8804 20.247 37.7948V36.0397H35.3574V37.7948C34.1588 37.7948 33.2742 37.9517 32.7034 38.2656C32.1327 38.551 31.8473 39.1217 31.8473 39.9778C31.8473 40.4059 31.9044 40.9053 32.0186 41.476C32.1612 42.0468 32.3467 42.7031 32.575 43.4451L37.9685 60.6957ZM72.1441 65.0191C69.5472 67.9584 66.3083 69.4281 62.4272 69.4281C60.6579 69.4281 59.0456 69.157 57.5902 68.6147C56.1633 68.044 54.9362 67.2592 53.9089 66.2604C52.8816 65.2331 52.0825 64.0203 51.5118 62.622C50.9411 61.2237 50.6557 59.6684 50.6557 57.9562C50.6557 56.1869 50.9553 54.5745 51.5546 53.1191C52.1539 51.6352 52.9957 50.3653 54.0801 49.3094C55.1931 48.225 56.4915 47.3832 57.9754 46.7839C59.4879 46.1846 61.1431 45.885 62.9409 45.885C65.9658 45.885 68.3201 46.6983 70.0038 48.3249C71.6875 49.9515 72.5293 52.2345 72.5293 55.1738C72.5293 55.6304 72.458 55.9158 72.3153 56.0299C72.1726 56.1155 71.7731 56.1583 71.1167 56.1583H57.3334C57.2192 56.4152 57.1621 56.886 57.1621 57.5709C57.1621 60.3675 57.7614 62.5792 58.96 64.2058C60.1871 65.8324 61.8422 66.6457 63.9254 66.6457C65.124 66.6457 66.3083 66.3746 67.4783 65.8324C68.6768 65.2902 69.8326 64.5197 70.9455 63.5209L72.1441 65.0191ZM63.8398 53.7612C64.9813 53.7612 65.709 53.7041 66.0229 53.59C66.3653 53.4473 66.5366 53.1334 66.5366 52.6483C66.5366 51.3926 66.1798 50.3653 65.4664 49.5663C64.753 48.7672 63.8541 48.3677 62.7697 48.3677C61.5426 48.3677 60.4439 48.8814 59.4736 49.9087C58.5319 50.9075 57.9184 52.1917 57.633 53.7612H63.8398ZM77.4931 69H76.1661V61.2094H77.964C78.4491 63.2641 79.1482 64.7622 80.0614 65.704C80.9746 66.6457 82.1589 67.1166 83.6143 67.1166C84.6702 67.1166 85.4835 66.9025 86.0542 66.4745C86.6535 66.0179 86.9531 65.4043 86.9531 64.6338C86.9531 63.8348 86.5964 63.0643 85.883 62.3223C85.1696 61.5518 84.0138 60.7385 82.4157 59.8824C80.2469 58.7124 78.6917 57.5566 77.7499 56.4152C76.8082 55.2451 76.3374 53.9324 76.3374 52.4771C76.3374 51.5353 76.5086 50.665 76.851 49.8659C77.222 49.0383 77.7071 48.3249 78.3064 47.7256C78.9342 47.1264 79.6762 46.6698 80.5323 46.3559C81.3884 46.0134 82.3159 45.8422 83.3147 45.8422C84.1993 45.8422 85.0697 45.9706 85.9258 46.2274C86.8104 46.4843 87.5809 46.841 88.2373 47.2976L89.0078 46.2703H90.1207V52.7339H88.4513C87.795 51.1073 87.1101 49.9373 86.3967 49.2238C85.7118 48.5104 84.8699 48.1537 83.8711 48.1537C83.0721 48.1537 82.43 48.3677 81.9449 48.7958C81.4883 49.2238 81.26 49.7946 81.26 50.508C81.26 51.307 81.6024 52.0633 82.2873 52.7767C83.0008 53.4901 84.1708 54.2749 85.7974 55.131C86.9389 55.7588 87.9234 56.3724 88.751 56.9716C89.5785 57.5709 90.2492 58.1845 90.7628 58.8123C91.2765 59.4116 91.6475 60.0536 91.8758 60.7385C92.1326 61.3949 92.261 62.1083 92.261 62.8788C92.261 63.8776 92.0755 64.7765 91.7045 65.5756C91.3336 66.3746 90.8056 67.0595 90.1207 67.6302C89.4359 68.201 88.6083 68.6433 87.638 68.9572C86.6963 69.2711 85.6404 69.4281 84.4704 69.4281C83.2433 69.4281 82.1018 69.2711 81.046 68.9572C79.9901 68.6148 79.1197 68.1296 78.4348 67.5018L77.4931 69ZM94.6504 48.6674V46.7411C96.3627 46.256 97.7895 45.5283 98.931 44.558C100.101 43.5592 100.971 42.4178 101.542 41.1336H103.725V46.3131H108.648V48.6674H103.725V61.8087C103.725 63.578 103.911 64.8336 104.282 65.5756C104.681 66.3175 105.338 66.6885 106.251 66.6885C107.364 66.6885 108.206 66.1748 108.776 65.1475L109.675 66.3889C108.876 68.415 106.993 69.4281 104.025 69.4281C102.056 69.4281 100.515 68.9715 99.4019 68.0583C98.3174 67.1451 97.7752 65.8609 97.7752 64.2058V48.6674H94.6504ZM119.342 59.6256C119.342 60.6815 119.485 61.666 119.77 62.5792C120.084 63.4638 120.498 64.2343 121.012 64.8907C121.525 65.547 122.139 66.0607 122.852 66.4317C123.566 66.8026 124.35 66.9881 125.207 66.9881C126.919 66.9881 128.217 66.2034 129.102 64.6338C129.987 63.0643 130.429 60.7528 130.429 57.6993C130.429 54.7315 129.987 52.4771 129.102 50.9361C128.246 49.3665 126.947 48.5817 125.207 48.5817C124.179 48.5817 123.223 48.8671 122.339 49.4379C121.482 49.9801 120.812 50.7506 120.327 51.7494C119.67 53.1191 119.342 54.8456 119.342 56.9288V59.6256ZM119.257 49.2666H119.428C120.17 48.1822 121.126 47.3547 122.296 46.7839C123.466 46.1846 124.793 45.885 126.277 45.885C127.789 45.885 129.187 46.1989 130.472 46.8267C131.784 47.426 132.912 48.2536 133.853 49.3094C134.824 50.3653 135.58 51.6067 136.122 53.0335C136.664 54.4604 136.935 55.9871 136.935 57.6137C136.935 59.3259 136.636 60.9097 136.036 62.3651C135.466 63.792 134.667 65.0334 133.639 66.0892C132.64 67.1451 131.456 67.9727 130.086 68.5719C128.745 69.1712 127.318 69.4709 125.806 69.4709C124.236 69.4709 122.752 69.1712 121.354 68.5719C119.984 67.9441 118.886 67.1308 118.058 66.132L114.805 69H113.349V43.5307C113.349 40.8482 113.164 39.0076 112.793 38.0088C112.707 37.809 112.607 37.6378 112.493 37.4951C112.379 37.3524 112.208 37.2383 111.98 37.1527C111.78 37.0385 111.495 36.9529 111.124 36.8958C110.753 36.8102 110.267 36.7246 109.668 36.639V35.1836L119.257 33.4714V49.2666ZM158.245 53.3332C158.245 52.1917 158.217 51.2928 158.16 50.6364C158.102 49.9515 157.945 49.4379 157.689 49.0954C157.432 48.7244 157.047 48.4819 156.533 48.3677C156.048 48.225 155.377 48.1109 154.521 48.0253V46.3131H164.195V59.2831C164.195 61.0239 164.209 62.3937 164.238 63.3925C164.295 64.3627 164.381 65.0904 164.495 65.5756C164.58 65.9465 164.68 66.2462 164.794 66.4745C164.909 66.6742 165.094 66.8455 165.351 66.9881C165.608 67.1023 165.95 67.1879 166.378 67.245C166.835 67.2735 167.42 67.2878 168.133 67.2878V68.9572L159.615 69.4709L159.144 65.6612H158.973C158.231 66.8597 157.189 67.7872 155.848 68.4435C154.507 69.0999 153.009 69.4281 151.353 69.4281C148.3 69.4281 145.974 68.3436 144.376 66.1748C143.149 64.5197 142.535 62.1654 142.535 59.1119V53.3332C142.535 52.1631 142.507 51.25 142.45 50.5936C142.393 49.9087 142.236 49.3951 141.979 49.0526C141.751 48.7102 141.394 48.4819 140.909 48.3677C140.424 48.225 139.753 48.1109 138.897 48.0253V46.3131H148.485V58.427C148.485 61.3093 148.842 63.4067 149.556 64.7194C150.269 66.0036 151.41 66.6457 152.98 66.6457C154.664 66.6457 155.962 65.8752 156.875 64.3342C157.789 62.8503 158.245 60.6672 158.245 57.7849V53.3332ZM179.519 62.3651C179.519 63.4781 179.562 64.3627 179.647 65.0191C179.761 65.6469 179.975 66.132 180.289 66.4745C180.603 66.8169 181.06 67.0452 181.659 67.1594C182.258 67.245 183.057 67.2878 184.056 67.2878V69H169.759V67.2878C170.615 67.2307 171.3 67.1451 171.814 67.0309C172.327 66.9168 172.713 66.6885 172.97 66.3461C173.226 66.0036 173.383 65.5185 173.44 64.8907C173.526 64.2343 173.569 63.3639 173.569 62.2795V57.0572C173.569 55.288 173.526 53.8754 173.44 52.8195C173.355 51.7636 173.169 50.9503 172.884 50.3796C172.599 49.8088 172.185 49.4379 171.643 49.2666C171.129 49.0669 170.444 48.967 169.588 48.967V47.4688L178.149 45.885L178.834 50.8076H179.005C179.776 49.2952 180.789 48.0966 182.044 47.212C183.3 46.3273 184.627 45.885 186.025 45.885C187.11 45.885 187.994 46.1561 188.679 46.6983C189.364 47.2405 189.707 47.9254 189.707 48.753C189.707 49.6662 189.435 50.4367 188.893 51.0645C188.38 51.6923 187.666 52.0062 186.753 52.0062C186.325 52.0062 185.94 51.9206 185.597 51.7494C185.255 51.5781 184.941 51.3926 184.655 51.1929C184.399 50.9646 184.128 50.7648 183.842 50.5936C183.585 50.3939 183.314 50.294 183.029 50.294C182.487 50.294 181.973 50.6507 181.488 51.3641C181.003 52.0775 180.603 53.0335 180.289 54.2321C180.061 55.0882 179.876 56.0585 179.733 57.1429C179.59 58.1987 179.519 59.2546 179.519 60.3105V62.3651ZM200.624 62.3651C200.624 63.4781 200.667 64.3627 200.752 65.0191C200.867 65.6469 201.081 66.132 201.394 66.4745C201.708 66.8169 202.165 67.0452 202.764 67.1594C203.363 67.245 204.163 67.2878 205.161 67.2878V69H190.864V67.2878C191.72 67.2307 192.405 67.1451 192.919 67.0309C193.433 66.9168 193.818 66.6885 194.075 66.3461C194.332 66.0036 194.488 65.5185 194.546 64.8907C194.631 64.2343 194.674 63.3639 194.674 62.2795V57.0572C194.674 55.288 194.631 53.8754 194.546 52.8195C194.46 51.7636 194.274 50.9503 193.989 50.3796C193.704 49.8088 193.29 49.4379 192.748 49.2666C192.234 49.0669 191.549 48.967 190.693 48.967V47.4688L199.254 45.885L199.939 50.8076H200.11C200.881 49.2952 201.894 48.0966 203.149 47.212C204.405 46.3273 205.732 45.885 207.13 45.885C208.215 45.885 209.099 46.1561 209.784 46.6983C210.469 47.2405 210.812 47.9254 210.812 48.753C210.812 49.6662 210.541 50.4367 209.998 51.0645C209.485 51.6923 208.771 52.0062 207.858 52.0062C207.43 52.0062 207.045 51.9206 206.702 51.7494C206.36 51.5781 206.046 51.3926 205.761 51.1929C205.504 50.9646 205.233 50.7648 204.947 50.5936C204.69 50.3939 204.419 50.294 204.134 50.294C203.592 50.294 203.078 50.6507 202.593 51.3641C202.108 52.0775 201.708 53.0335 201.394 54.2321C201.166 55.0882 200.981 56.0585 200.838 57.1429C200.695 58.1987 200.624 59.2546 200.624 60.3105V62.3651Z" fill="#2B2C32"/>
<path d="M37.9685 60.6957L43.7473 44.1728C44.4322 42.2608 44.7746 40.8339 44.7746 39.8922C44.7746 39.0076 44.4607 38.4368 43.8329 38.18C43.2336 37.8946 42.2919 37.7519 41.0077 37.7519V36.0397H53.1645V37.7519C52.0801 37.7519 51.0956 38.023 50.2109 38.5653C49.3548 39.0789 48.6985 39.9636 48.2419 41.2192L37.9257 69.4281H34.116L26.6679 46.8267L18.1924 69.4281H14.6395L5.56472 44.4296C5.02252 42.9742 4.52312 41.8042 4.06653 40.9196C3.60994 40.0349 3.12481 39.3643 2.61114 38.9077C2.09747 38.4511 1.541 38.1515 0.941722 38.0088C0.342444 37.8661 -0.370981 37.7948 -1.19856 37.7948V36.0397H14.9819V37.7948C13.5266 37.7948 12.5278 37.9374 11.9856 38.2228C11.4434 38.4796 11.1722 38.922 11.1722 39.5498C11.1722 39.7781 11.1865 40.0064 11.2151 40.2347C11.2436 40.4344 11.3007 40.677 11.3863 40.9624C11.4719 41.2192 11.5718 41.5474 11.6859 41.9469C11.8286 42.3464 12.0141 42.8458 12.2424 43.4451L18.2352 60.6957L25.1697 41.7757C24.8843 41.0052 24.5989 40.3774 24.3136 39.8922C24.0282 39.4071 23.6857 39.0218 23.2862 38.7365C22.9152 38.4511 22.4872 38.2513 22.0021 38.1372C21.5169 37.9945 20.9319 37.8804 20.247 37.7948V36.0397H35.3574V37.7948C34.1588 37.7948 33.2742 37.9517 32.7034 38.2656C32.1327 38.551 31.8473 39.1217 31.8473 39.9778C31.8473 40.4059 31.9044 40.9053 32.0186 41.476C32.1612 42.0468 32.3467 42.7031 32.575 43.4451L37.9685 60.6957ZM72.1441 65.0191C69.5472 67.9584 66.3083 69.4281 62.4272 69.4281C60.6579 69.4281 59.0456 69.157 57.5902 68.6147C56.1633 68.044 54.9362 67.2592 53.9089 66.2604C52.8816 65.2331 52.0825 64.0203 51.5118 62.622C50.9411 61.2237 50.6557 59.6684 50.6557 57.9562C50.6557 56.1869 50.9553 54.5745 51.5546 53.1191C52.1539 51.6352 52.9957 50.3653 54.0801 49.3094C55.1931 48.225 56.4915 47.3832 57.9754 46.7839C59.4879 46.1846 61.1431 45.885 62.9409 45.885C65.9658 45.885 68.3201 46.6983 70.0038 48.3249C71.6875 49.9515 72.5293 52.2345 72.5293 55.1738C72.5293 55.6304 72.458 55.9158 72.3153 56.0299C72.1726 56.1155 71.7731 56.1583 71.1167 56.1583H57.3334C57.2192 56.4152 57.1621 56.886 57.1621 57.5709C57.1621 60.3675 57.7614 62.5792 58.96 64.2058C60.1871 65.8324 61.8422 66.6457 63.9254 66.6457C65.124 66.6457 66.3083 66.3746 67.4783 65.8324C68.6768 65.2902 69.8326 64.5197 70.9455 63.5209L72.1441 65.0191ZM63.8398 53.7612C64.9813 53.7612 65.709 53.7041 66.0229 53.59C66.3653 53.4473 66.5366 53.1334 66.5366 52.6483C66.5366 51.3926 66.1798 50.3653 65.4664 49.5663C64.753 48.7672 63.8541 48.3677 62.7697 48.3677C61.5426 48.3677 60.4439 48.8814 59.4736 49.9087C58.5319 50.9075 57.9184 52.1917 57.633 53.7612H63.8398ZM77.4931 69H76.1661V61.2094H77.964C78.4491 63.2641 79.1482 64.7622 80.0614 65.704C80.9746 66.6457 82.1589 67.1166 83.6143 67.1166C84.6702 67.1166 85.4835 66.9025 86.0542 66.4745C86.6535 66.0179 86.9531 65.4043 86.9531 64.6338C86.9531 63.8348 86.5964 63.0643 85.883 62.3223C85.1696 61.5518 84.0138 60.7385 82.4157 59.8824C80.2469 58.7124 78.6917 57.5566 77.7499 56.4152C76.8082 55.2451 76.3374 53.9324 76.3374 52.4771C76.3374 51.5353 76.5086 50.665 76.851 49.8659C77.222 49.0383 77.7071 48.3249 78.3064 47.7256C78.9342 47.1264 79.6762 46.6698 80.5323 46.3559C81.3884 46.0134 82.3159 45.8422 83.3147 45.8422C84.1993 45.8422 85.0697 45.9706 85.9258 46.2274C86.8104 46.4843 87.5809 46.841 88.2373 47.2976L89.0078 46.2703H90.1207V52.7339H88.4513C87.795 51.1073 87.1101 49.9373 86.3967 49.2238C85.7118 48.5104 84.8699 48.1537 83.8711 48.1537C83.0721 48.1537 82.43 48.3677 81.9449 48.7958C81.4883 49.2238 81.26 49.7946 81.26 50.508C81.26 51.307 81.6024 52.0633 82.2873 52.7767C83.0008 53.4901 84.1708 54.2749 85.7974 55.131C86.9389 55.7588 87.9234 56.3724 88.751 56.9716C89.5785 57.5709 90.2492 58.1845 90.7628 58.8123C91.2765 59.4116 91.6475 60.0536 91.8758 60.7385C92.1326 61.3949 92.261 62.1083 92.261 62.8788C92.261 63.8776 92.0755 64.7765 91.7045 65.5756C91.3336 66.3746 90.8056 67.0595 90.1207 67.6302C89.4359 68.201 88.6083 68.6433 87.638 68.9572C86.6963 69.2711 85.6404 69.4281 84.4704 69.4281C83.2433 69.4281 82.1018 69.2711 81.046 68.9572C79.9901 68.6148 79.1197 68.1296 78.4348 67.5018L77.4931 69ZM94.6504 48.6674V46.7411C96.3627 46.256 97.7895 45.5283 98.931 44.558C100.101 43.5592 100.971 42.4178 101.542 41.1336H103.725V46.3131H108.648V48.6674H103.725V61.8087C103.725 63.578 103.911 64.8336 104.282 65.5756C104.681 66.3175 105.338 66.6885 106.251 66.6885C107.364 66.6885 108.206 66.1748 108.776 65.1475L109.675 66.3889C108.876 68.415 106.993 69.4281 104.025 69.4281C102.056 69.4281 100.515 68.9715 99.4019 68.0583C98.3174 67.1451 97.7752 65.8609 97.7752 64.2058V48.6674H94.6504ZM119.342 59.6256C119.342 60.6815 119.485 61.666 119.77 62.5792C120.084 63.4638 120.498 64.2343 121.012 64.8907C121.525 65.547 122.139 66.0607 122.852 66.4317C123.566 66.8026 124.35 66.9881 125.207 66.9881C126.919 66.9881 128.217 66.2034 129.102 64.6338C129.987 63.0643 130.429 60.7528 130.429 57.6993C130.429 54.7315 129.987 52.4771 129.102 50.9361C128.246 49.3665 126.947 48.5817 125.207 48.5817C124.179 48.5817 123.223 48.8671 122.339 49.4379C121.482 49.9801 120.812 50.7506 120.327 51.7494C119.67 53.1191 119.342 54.8456 119.342 56.9288V59.6256ZM119.257 49.2666H119.428C120.17 48.1822 121.126 47.3547 122.296 46.7839C123.466 46.1846 124.793 45.885 126.277 45.885C127.789 45.885 129.187 46.1989 130.472 46.8267C131.784 47.426 132.912 48.2536 133.853 49.3094C134.824 50.3653 135.58 51.6067 136.122 53.0335C136.664 54.4604 136.935 55.9871 136.935 57.6137C136.935 59.3259 136.636 60.9097 136.036 62.3651C135.466 63.792 134.667 65.0334 133.639 66.0892C132.64 67.1451 131.456 67.9727 130.086 68.5719C128.745 69.1712 127.318 69.4709 125.806 69.4709C124.236 69.4709 122.752 69.1712 121.354 68.5719C119.984 67.9441 118.886 67.1308 118.058 66.132L114.805 69H113.349V43.5307C113.349 40.8482 113.164 39.0076 112.793 38.0088C112.707 37.809 112.607 37.6378 112.493 37.4951C112.379 37.3524 112.208 37.2383 111.98 37.1527C111.78 37.0385 111.495 36.9529 111.124 36.8958C110.753 36.8102 110.267 36.7246 109.668 36.639V35.1836L119.257 33.4714V49.2666ZM158.245 53.3332C158.245 52.1917 158.217 51.2928 158.16 50.6364C158.102 49.9515 157.945 49.4379 157.689 49.0954C157.432 48.7244 157.047 48.4819 156.533 48.3677C156.048 48.225 155.377 48.1109 154.521 48.0253V46.3131H164.195V59.2831C164.195 61.0239 164.209 62.3937 164.238 63.3925C164.295 64.3627 164.381 65.0904 164.495 65.5756C164.58 65.9465 164.68 66.2462 164.794 66.4745C164.909 66.6742 165.094 66.8455 165.351 66.9881C165.608 67.1023 165.95 67.1879 166.378 67.245C166.835 67.2735 167.42 67.2878 168.133 67.2878V68.9572L159.615 69.4709L159.144 65.6612H158.973C158.231 66.8597 157.189 67.7872 155.848 68.4435C154.507 69.0999 153.009 69.4281 151.353 69.4281C148.3 69.4281 145.974 68.3436 144.376 66.1748C143.149 64.5197 142.535 62.1654 142.535 59.1119V53.3332C142.535 52.1631 142.507 51.25 142.45 50.5936C142.393 49.9087 142.236 49.3951 141.979 49.0526C141.751 48.7102 141.394 48.4819 140.909 48.3677C140.424 48.225 139.753 48.1109 138.897 48.0253V46.3131H148.485V58.427C148.485 61.3093 148.842 63.4067 149.556 64.7194C150.269 66.0036 151.41 66.6457 152.98 66.6457C154.664 66.6457 155.962 65.8752 156.875 64.3342C157.789 62.8503 158.245 60.6672 158.245 57.7849V53.3332ZM179.519 62.3651C179.519 63.4781 179.562 64.3627 179.647 65.0191C179.761 65.6469 179.975 66.132 180.289 66.4745C180.603 66.8169 181.06 67.0452 181.659 67.1594C182.258 67.245 183.057 67.2878 184.056 67.2878V69H169.759V67.2878C170.615 67.2307 171.3 67.1451 171.814 67.0309C172.327 66.9168 172.713 66.6885 172.97 66.3461C173.226 66.0036 173.383 65.5185 173.44 64.8907C173.526 64.2343 173.569 63.3639 173.569 62.2795V57.0572C173.569 55.288 173.526 53.8754 173.44 52.8195C173.355 51.7636 173.169 50.9503 172.884 50.3796C172.599 49.8088 172.185 49.4379 171.643 49.2666C171.129 49.0669 170.444 48.967 169.588 48.967V47.4688L178.149 45.885L178.834 50.8076H179.005C179.776 49.2952 180.789 48.0966 182.044 47.212C183.3 46.3273 184.627 45.885 186.025 45.885C187.11 45.885 187.994 46.1561 188.679 46.6983C189.364 47.2405 189.707 47.9254 189.707 48.753C189.707 49.6662 189.435 50.4367 188.893 51.0645C188.38 51.6923 187.666 52.0062 186.753 52.0062C186.325 52.0062 185.94 51.9206 185.597 51.7494C185.255 51.5781 184.941 51.3926 184.655 51.1929C184.399 50.9646 184.128 50.7648 183.842 50.5936C183.585 50.3939 183.314 50.294 183.029 50.294C182.487 50.294 181.973 50.6507 181.488 51.3641C181.003 52.0775 180.603 53.0335 180.289 54.2321C180.061 55.0882 179.876 56.0585 179.733 57.1429C179.59 58.1987 179.519 59.2546 179.519 60.3105V62.3651ZM200.624 62.3651C200.624 63.4781 200.667 64.3627 200.752 65.0191C200.867 65.6469 201.081 66.132 201.394 66.4745C201.708 66.8169 202.165 67.0452 202.764 67.1594C203.363 67.245 204.163 67.2878 205.161 67.2878V69H190.864V67.2878C191.72 67.2307 192.405 67.1451 192.919 67.0309C193.433 66.9168 193.818 66.6885 194.075 66.3461C194.332 66.0036 194.488 65.5185 194.546 64.8907C194.631 64.2343 194.674 63.3639 194.674 62.2795V57.0572C194.674 55.288 194.631 53.8754 194.546 52.8195C194.46 51.7636 194.274 50.9503 193.989 50.3796C193.704 49.8088 193.29 49.4379 192.748 49.2666C192.234 49.0669 191.549 48.967 190.693 48.967V47.4688L199.254 45.885L199.939 50.8076H200.11C200.881 49.2952 201.894 48.0966 203.149 47.212C204.405 46.3273 205.732 45.885 207.13 45.885C208.215 45.885 209.099 46.1561 209.784 46.6983C210.469 47.2405 210.812 47.9254 210.812 48.753C210.812 49.6662 210.541 50.4367 209.998 51.0645C209.485 51.6923 208.771 52.0062 207.858 52.0062C207.43 52.0062 207.045 51.9206 206.702 51.7494C206.36 51.5781 206.046 51.3926 205.761 51.1929C205.504 50.9646 205.233 50.7648 204.947 50.5936C204.69 50.3939 204.419 50.294 204.134 50.294C203.592 50.294 203.078 50.6507 202.593 51.3641C202.108 52.0775 201.708 53.0335 201.394 54.2321C201.166 55.0882 200.981 56.0585 200.838 57.1429C200.695 58.1987 200.624 59.2546 200.624 60.3105V62.3651Z" fill="#EFEFEF"/>
<path d="M223.511 69.6803C223.511 70.5504 223.343 71.3629 223.008 72.1176C222.672 72.8724 222.211 73.5328 221.624 74.0989C221.048 74.6545 220.371 75.0948 219.596 75.4198C218.82 75.7448 217.987 75.9072 217.095 75.9072C216.215 75.9072 215.387 75.7448 214.611 75.4198C213.846 75.0948 213.175 74.6493 212.598 74.0832C212.022 73.5171 211.566 72.8567 211.23 72.1019C210.905 71.3471 210.743 70.5452 210.743 69.6961C210.743 68.8469 210.905 68.045 211.23 67.2902C211.566 66.5354 212.016 65.875 212.583 65.3089C213.159 64.7429 213.83 64.2973 214.595 63.9724C215.371 63.6474 216.199 63.4849 217.08 63.4849C217.971 63.4849 218.804 63.6474 219.58 63.9724C220.366 64.2973 221.048 64.7376 221.624 65.2932C222.211 65.8488 222.672 66.504 223.008 67.2588C223.343 68.0136 223.511 68.8207 223.511 69.6803ZM222.568 69.6803C222.568 68.9465 222.421 68.2599 222.127 67.6204C221.844 66.9705 221.451 66.4097 220.948 65.9379C220.455 65.4557 219.873 65.0783 219.203 64.8058C218.542 64.5332 217.835 64.3969 217.08 64.3969C216.325 64.3969 215.617 64.5384 214.957 64.8215C214.307 65.094 213.736 65.4714 213.243 65.9536C212.761 66.4359 212.378 67.0019 212.095 67.6519C211.823 68.2913 211.686 68.9727 211.686 69.6961C211.686 70.4194 211.823 71.106 212.095 71.756C212.378 72.3954 212.761 72.9563 213.243 73.4385C213.736 73.9207 214.312 74.3033 214.973 74.5864C215.633 74.8589 216.341 74.9952 217.095 74.9952C217.85 74.9952 218.558 74.8589 219.218 74.5864C219.879 74.3033 220.455 73.9207 220.948 73.4385C221.451 72.9563 221.844 72.3954 222.127 71.756C222.421 71.106 222.568 70.4142 222.568 69.6803ZM220.146 70.954C219.989 71.6459 219.674 72.2067 219.203 72.6366C218.741 73.0664 218.102 73.2813 217.284 73.2813C216.697 73.2813 216.168 73.2026 215.696 73.0454C215.224 72.8777 214.821 72.647 214.485 72.3535C214.15 72.0495 213.893 71.6878 213.715 71.2685C213.536 70.8492 213.447 70.3775 213.447 69.8533C213.447 69.3082 213.542 68.8103 213.73 68.3595C213.919 67.9087 214.186 67.5208 214.532 67.1959C214.878 66.8709 215.292 66.6193 215.775 66.4411C216.257 66.2629 216.791 66.1738 217.378 66.1738C217.745 66.1738 218.086 66.2367 218.401 66.3625C218.726 66.4883 219.082 66.6927 219.47 66.9757L219.627 66.2681H219.973L220.052 68.328H219.627C219.491 67.8982 219.229 67.5628 218.841 67.3217C218.463 67.0806 218.007 66.96 217.473 66.96C216.77 66.96 216.225 67.2116 215.837 67.7148C215.46 68.2075 215.271 68.8994 215.271 69.7904C215.271 70.671 215.46 71.3419 215.837 71.8032C216.225 72.2539 216.781 72.4793 217.504 72.4793C218.595 72.4793 219.292 71.9709 219.596 70.954H220.146Z" fill="#2B2C32"/>
<path d="M223.511 69.6803C223.511 70.5504 223.343 71.3629 223.008 72.1176C222.672 72.8724 222.211 73.5328 221.624 74.0989C221.048 74.6545 220.371 75.0948 219.596 75.4198C218.82 75.7448 217.987 75.9072 217.095 75.9072C216.215 75.9072 215.387 75.7448 214.611 75.4198C213.846 75.0948 213.175 74.6493 212.598 74.0832C212.022 73.5171 211.566 72.8567 211.23 72.1019C210.905 71.3471 210.743 70.5452 210.743 69.6961C210.743 68.8469 210.905 68.045 211.23 67.2902C211.566 66.5354 212.016 65.875 212.583 65.3089C213.159 64.7429 213.83 64.2973 214.595 63.9724C215.371 63.6474 216.199 63.4849 217.08 63.4849C217.971 63.4849 218.804 63.6474 219.58 63.9724C220.366 64.2973 221.048 64.7376 221.624 65.2932C222.211 65.8488 222.672 66.504 223.008 67.2588C223.343 68.0136 223.511 68.8207 223.511 69.6803ZM222.568 69.6803C222.568 68.9465 222.421 68.2599 222.127 67.6204C221.844 66.9705 221.451 66.4097 220.948 65.9379C220.455 65.4557 219.873 65.0783 219.203 64.8058C218.542 64.5332 217.835 64.3969 217.08 64.3969C216.325 64.3969 215.617 64.5384 214.957 64.8215C214.307 65.094 213.736 65.4714 213.243 65.9536C212.761 66.4359 212.378 67.0019 212.095 67.6519C211.823 68.2913 211.686 68.9727 211.686 69.6961C211.686 70.4194 211.823 71.106 212.095 71.756C212.378 72.3954 212.761 72.9563 213.243 73.4385C213.736 73.9207 214.312 74.3033 214.973 74.5864C215.633 74.8589 216.341 74.9952 217.095 74.9952C217.85 74.9952 218.558 74.8589 219.218 74.5864C219.879 74.3033 220.455 73.9207 220.948 73.4385C221.451 72.9563 221.844 72.3954 222.127 71.756C222.421 71.106 222.568 70.4142 222.568 69.6803ZM220.146 70.954C219.989 71.6459 219.674 72.2067 219.203 72.6366C218.741 73.0664 218.102 73.2813 217.284 73.2813C216.697 73.2813 216.168 73.2026 215.696 73.0454C215.224 72.8777 214.821 72.647 214.485 72.3535C214.15 72.0495 213.893 71.6878 213.715 71.2685C213.536 70.8492 213.447 70.3775 213.447 69.8533C213.447 69.3082 213.542 68.8103 213.73 68.3595C213.919 67.9087 214.186 67.5208 214.532 67.1959C214.878 66.8709 215.292 66.6193 215.775 66.4411C216.257 66.2629 216.791 66.1738 217.378 66.1738C217.745 66.1738 218.086 66.2367 218.401 66.3625C218.726 66.4883 219.082 66.6927 219.47 66.9757L219.627 66.2681H219.973L220.052 68.328H219.627C219.491 67.8982 219.229 67.5628 218.841 67.3217C218.463 67.0806 218.007 66.96 217.473 66.96C216.77 66.96 216.225 67.2116 215.837 67.7148C215.46 68.2075 215.271 68.8994 215.271 69.7904C215.271 70.671 215.46 71.3419 215.837 71.8032C216.225 72.2539 216.781 72.4793 217.504 72.4793C218.595 72.4793 219.292 71.9709 219.596 70.954H220.146Z" fill="#EFEFEF"/>
</g>
</svg>
